HIERARCHY
ROOT Hips
{
  OFFSET -18.6024 93.8698 9.38119
  CHANNELS 6 Xposition Yposition Zposition Zrotation Xrotation Yrotation
  JOINT Spine
  {
    OFFSET 0 8.59463 0
    CHANNELS 6 Xposition Yposition Zposition Zrotation Xrotation Yrotation
    JOINT Spine1
    {
      OFFSET 0 8.59463 0
      CHANNELS 6 Xposition Yposition Zposition Zrotation Xrotation Yrotation
      JOINT Spine2
      {
        OFFSET 0 8.59463 0
        CHANNELS 6 Xposition Yposition Zposition Zrotation Xrotation Yrotation
        JOINT Spine3
        {
          OFFSET 0 8.59463 0
          CHANNELS 6 Xposition Yposition Zposition Zrotation Xrotation Yrotation
          JOINT Neck
          {
            OFFSET 0 18.2636 0
            CHANNELS 6 Xposition Yposition Zposition Zrotation Xrotation Yrotation
            JOINT Head
            {
              OFFSET 0 11.6027 0
              CHANNELS 6 Xposition Yposition Zposition Zrotation Xrotation Yrotation
              End Site
              {
                OFFSET 0 21.7552 0
              }
            }
          }
          JOINT LeftShoulder
          {
            OFFSET 5 17 0
            CHANNELS 6 Xposition Yposition Zposition Zrotation Xrotation Yrotation
            JOINT LeftShoulder2
            {
              OFFSET 7.25 0 0
              CHANNELS 6 Xposition Yposition Zposition Zrotation Xrotation Yrotation
              JOINT LeftArm
              {
                OFFSET 7.25 0 0
                CHANNELS 6 Xposition Yposition Zposition Zrotation Xrotation Yrotation
                JOINT LeftForeArm
                {
                  OFFSET 0 -30.1395 -2
                  CHANNELS 6 Xposition Yposition Zposition Zrotation Xrotation Yrotation
                  JOINT LeftHand
                  {
                    OFFSET 0 -23.8605 2
                    CHANNELS 6 Xposition Yposition Zposition Zrotation Xrotation Yrotation
                    JOINT LeftHandThumb1
                    {
                      OFFSET -0.5 -1.5 2.65
                      CHANNELS 6 Xposition Yposition Zposition Zrotation Xrotation Yrotation
                      JOINT LeftHandThumb2
                      {
                        OFFSET 0 -3.8 3.7
                        CHANNELS 6 Xposition Yposition Zposition Zrotation Xrotation Yrotation
                        JOINT LeftHandThumb3
                        {
                          OFFSET 0 -3 2.7
                          CHANNELS 6 Xposition Yposition Zposition Zrotation Xrotation Yrotation
                          End Site
                          {
                            OFFSET 0 -2.3 1.8
                          }
                        }
                      }
                    }
                    JOINT LeftHandIndex
                    {
                      OFFSET 0 -1.9 1.6
                      CHANNELS 6 Xposition Yposition Zposition Zrotation Xrotation Yrotation
                      JOINT LeftHandIndex1
                      {
                        OFFSET 0 -8.3 1.9
                        CHANNELS 6 Xposition Yposition Zposition Zrotation Xrotation Yrotation
                        JOINT LeftHandIndex2
                        {
                          OFFSET 0 -4.5 0
                          CHANNELS 6 Xposition Yposition Zposition Zrotation Xrotation Yrotation
                          JOINT LeftHandIndex3
                          {
                            OFFSET 0 -3.4 0
                            CHANNELS 6 Xposition Yposition Zposition Zrotation Xrotation Yrotation
                            End Site
                            {
                              OFFSET 0 -2.6 0
                            }
                          }
                        }
                      }
                    }
                    JOINT LeftHandMiddle
                    {
                      OFFSET -0.25 -2.2 0.4
                      CHANNELS 6 Xposition Yposition Zposition Zrotation Xrotation Yrotation
                      JOINT LeftHandMiddle1
                      {
                        OFFSET 0 -8.3 1
                        CHANNELS 6 Xposition Yposition Zposition Zrotation Xrotation Yrotation
                        JOINT LeftHandMiddle2
                        {
                          OFFSET 0 -4.65 0
                          CHANNELS 6 Xposition Yposition Zposition Zrotation Xrotation Yrotation
                          JOINT LeftHandMiddle3
                          {
                            OFFSET 0 -3.3 0
                            CHANNELS 6 Xposition Yposition Zposition Zrotation Xrotation Yrotation
                            End Site
                            {
                              OFFSET 0 -2.7 0
                            }
                          }
                        }
                      }
                    }
                    JOINT LeftHandRing
                    {
                      OFFSET -0.5 -2.15 -0.8
                      CHANNELS 6 Xposition Yposition Zposition Zrotation Xrotation Yrotation
                      JOINT LeftHandRing1
                      {
                        OFFSET 0 -7.75 -0.2
                        CHANNELS 6 Xposition Yposition Zposition Zrotation Xrotation Yrotation
                        JOINT LeftHandRing2
                        {
                          OFFSET 0 -3.8 0
                          CHANNELS 6 Xposition Yposition Zposition Zrotation Xrotation Yrotation
                          JOINT LeftHandRing3
                          {
                            OFFSET 0 -3.4 0
                            CHANNELS 6 Xposition Yposition Zposition Zrotation Xrotation Yrotation
                            End Site
                            {
                              OFFSET 0 -2.6 0
                            }
                          }
                        }
                      }
                    }
                    JOINT LeftHandPinky
                    {
                      OFFSET -0.75 -1.75 -1.85
                      CHANNELS 6 Xposition Yposition Zposition Zrotation Xrotation Yrotation
                      JOINT LeftHandPinky1
                      {
                        OFFSET 0 -7.15 -1
                        CHANNELS 6 Xposition Yposition Zposition Zrotation Xrotation Yrotation
                        JOINT LeftHandPinky2
                        {
                          OFFSET 0 -3 0
                          CHANNELS 6 Xposition Yposition Zposition Zrotation Xrotation Yrotation
                          JOINT LeftHandPinky3
                          {
                            OFFSET 0 -2.35 0
                            CHANNELS 6 Xposition Yposition Zposition Zrotation Xrotation Yrotation
                            End Site
                            {
                              OFFSET 0 -2.1 0
                            }
                          }
                        }
                      }
                    }
                  }
                }
              }
            }
          }
          JOINT RightShoulder
          {
            OFFSET -5 17 0
            CHANNELS 6 Xposition Yposition Zposition Zrotation Xrotation Yrotation
            JOINT RightShoulder2
            {
              OFFSET -7.25 0 0
              CHANNELS 6 Xposition Yposition Zposition Zrotation Xrotation Yrotation
              JOINT RightArm
              {
                OFFSET -7.25 0 0
                CHANNELS 6 Xposition Yposition Zposition Zrotation Xrotation Yrotation
                JOINT RightForeArm
                {
                  OFFSET 0 -30.1395 -2
                  CHANNELS 6 Xposition Yposition Zposition Zrotation Xrotation Yrotation
                  JOINT RightHand
                  {
                    OFFSET 0 -23.8605 2
                    CHANNELS 6 Xposition Yposition Zposition Zrotation Xrotation Yrotation
                    JOINT RightHandThumb1
                    {
                      OFFSET 0.5 -1.5 2.65
                      CHANNELS 6 Xposition Yposition Zposition Zrotation Xrotation Yrotation
                      JOINT RightHandThumb2
                      {
                        OFFSET 0 -3.8 3.7
                        CHANNELS 6 Xposition Yposition Zposition Zrotation Xrotation Yrotation
                        JOINT RightHandThumb3
                        {
                          OFFSET 0 -3 2.7
                          CHANNELS 6 Xposition Yposition Zposition Zrotation Xrotation Yrotation
                          End Site
                          {
                            OFFSET 0 -2.3 1.8
                          }
                        }
                      }
                    }
                    JOINT RightHandIndex
                    {
                      OFFSET 0 -1.9 1.6
                      CHANNELS 6 Xposition Yposition Zposition Zrotation Xrotation Yrotation
                      JOINT RightHandIndex1
                      {
                        OFFSET 0 -8.3 1.9
                        CHANNELS 6 Xposition Yposition Zposition Zrotation Xrotation Yrotation
                        JOINT RightHandIndex2
                        {
                          OFFSET 0 -4.5 0
                          CHANNELS 6 Xposition Yposition Zposition Zrotation Xrotation Yrotation
                          JOINT RightHandIndex3
                          {
                            OFFSET 0 -3.4 0
                            CHANNELS 6 Xposition Yposition Zposition Zrotation Xrotation Yrotation
                            End Site
                            {
                              OFFSET 0 -2.6 0
                            }
                          }
                        }
                      }
                    }
                    JOINT RightHandMiddle
                    {
                      OFFSET 0.25 -2.2 0.4
                      CHANNELS 6 Xposition Yposition Zposition Zrotation Xrotation Yrotation
                      JOINT RightHandMiddle1
                      {
                        OFFSET 0 -8.3 1
                        CHANNELS 6 Xposition Yposition Zposition Zrotation Xrotation Yrotation
                        JOINT RightHandMiddle2
                        {
                          OFFSET 0 -4.65 0
                          CHANNELS 6 Xposition Yposition Zposition Zrotation Xrotation Yrotation
                          JOINT RightHandMiddle3
                          {
                            OFFSET 0 -3.3 0
                            CHANNELS 6 Xposition Yposition Zposition Zrotation Xrotation Yrotation
                            End Site
                            {
                              OFFSET 0 -2.7 0
                            }
                          }
                        }
                      }
                    }
                    JOINT RightHandRing
                    {
                      OFFSET 0.5 -2.15 -0.8
                      CHANNELS 6 Xposition Yposition Zposition Zrotation Xrotation Yrotation
                      JOINT RightHandRing1
                      {
                        OFFSET 0 -7.75 -0.2
                        CHANNELS 6 Xposition Yposition Zposition Zrotation Xrotation Yrotation
                        JOINT RightHandRing2
                        {
                          OFFSET 0 -3.8 0
                          CHANNELS 6 Xposition Yposition Zposition Zrotation Xrotation Yrotation
                          JOINT RightHandRing3
                          {
                            OFFSET 0 -3.4 0
                            CHANNELS 6 Xposition Yposition Zposition Zrotation Xrotation Yrotation
                            End Site
                            {
                              OFFSET 0 -2.6 0
                            }
                          }
                        }
                      }
                    }
                    JOINT RightHandPinky
                    {
                      OFFSET 0.75 -1.75 -1.85
                      CHANNELS 6 Xposition Yposition Zposition Zrotation Xrotation Yrotation
                      JOINT RightHandPinky1
                      {
                        OFFSET 0 -7.15 -1
                        CHANNELS 6 Xposition Yposition Zposition Zrotation Xrotation Yrotation
                        JOINT RightHandPinky2
                        {
                          OFFSET 0 -3 0
                          CHANNELS 6 Xposition Yposition Zposition Zrotation Xrotation Yrotation
                          JOINT RightHandPinky3
                          {
                            OFFSET 0 -2.35 0
                            CHANNELS 6 Xposition Yposition Zposition Zrotation Xrotation Yrotation
                            End Site
                            {
                              OFFSET 0 -2.1 0
                            }
                          }
                        }
                      }
                    }
                  }
                }
              }
            }
          }
        }
      }
    }
  }
  JOINT LeftUpLeg
  {
    OFFSET 12.5 0 0
    CHANNELS 6 Xposition Yposition Zposition Zrotation Xrotation Yrotation
    JOINT LeftLeg
    {
      OFFSET 0 -45.2616 -1
      CHANNELS 6 Xposition Yposition Zposition Zrotation Xrotation Yrotation
      JOINT LeftFoot
      {
        OFFSET 0 -41.2384 -2
        CHANNELS 6 Xposition Yposition Zposition Zrotation Xrotation Yrotation
        JOINT LeftToeBase
        {
          OFFSET 0 -7.5 12.5
          CHANNELS 6 Xposition Yposition Zposition Zrotation Xrotation Yrotation
          JOINT LeftFootToe
          {
            OFFSET 0 0 4
            CHANNELS 6 Xposition Yposition Zposition Zrotation Xrotation Yrotation
            End Site
            {
              OFFSET 0 0 0
            }
          }
        }
      }
    }
  }
  JOINT RightUpLeg
  {
    OFFSET -12.5 0 0
    CHANNELS 6 Xposition Yposition Zposition Zrotation Xrotation Yrotation
    JOINT RightLeg
    {
      OFFSET 0 -45.2616 -1
      CHANNELS 6 Xposition Yposition Zposition Zrotation Xrotation Yrotation
      JOINT RightFoot
      {
        OFFSET 0 -41.2384 -2
        CHANNELS 6 Xposition Yposition Zposition Zrotation Xrotation Yrotation
        JOINT RightToeBase
        {
          OFFSET 0 -7.5 12.5
          CHANNELS 6 Xposition Yposition Zposition Zrotation Xrotation Yrotation
          JOINT RightFootToe
          {
            OFFSET 0 0 4
            CHANNELS 6 Xposition Yposition Zposition Zrotation Xrotation Yrotation
            End Site
            {
              OFFSET 0 0 0
            }
          }
        }
      }
    }
  }
}
MOTION
Frames:	3
Frame Time:	0.0111111
-24.9125 93.2964 14.034 -21.2861 -11.3702 127.382 1.77636e-15 8.59463 7.10543e-15 1.06645 31.2194 8.16011 0 8.59463 -1.42109e-14 2.60602 9.13337 -2.44447 -3.55271e-15 8.59463 -1.42109e-14 1.25263 4.59034 -1.16841 -3.55271e-15 8.59463 1.42109e-14 1.24831 4.57546 -1.16416 3.55271e-15 18.2636 0 -0.736966 -4.30786 1.26878 0 11.6027 0 -1.58379 -10.0934 2.89551 5 17 1.42109e-14 6.60848 1.1531 -1.8709 7.25 0 0 -3.62362 -4.62324 -3.78668 7.25 1.42109e-14 0 1.75984 -15.8375 -2.61786 0 -30.1395 -2 -18.1459 -20.8066 -5.76864 -1.77636e-15 -23.8605 2 21.9767 -2.48167 -17.3806 -0.5 -1.5 2.65 5.6214 -25.1647 -0.331955 0 -3.8 3.7 -0.0367577 25.3034 -3.51809e-15 0 -3 2.7 1.34883e-14 40.9879 -6.32025e-15 -1.77636e-15 -1.9 1.6 -1.71039e-31 -6.16232e-15 -1.59028e-15 0 -8.3 1.9 -0.361301 -1.08239 -0.00417685 0 -4.5 1.42109e-14 -0.000125572 -9.29272e-09 -9.54166e-15 0 -3.4 -1.42109e-14 -2.38542e-15 -2.18663e-15 -1.59028e-15 -0.25 -2.2 0.4 -1.71039e-31 -6.16232e-15 -1.59028e-15 0 -8.3 1 -0.281057 -0.659053 -1.59038e-15 0 -4.65 0 -0.00015455 -3.57812e-15 -0 0 -3.3 0 -1.43125e-14 4.57205e-15 -0 -0.5 -2.15 -0.8 -1.71039e-31 -6.16232e-15 -1.59028e-15 0 -7.75 -0.2 -0.10319 0.186954 -0 1.77636e-15 -3.8 0 -5.79561e-05 -3.97569e-16 -3.18055e-15 0 -3.4 -2.84217e-14 -7.95139e-16 -4.17448e-15 -1.59028e-15 -0.75 -1.75 -1.85 -1.71039e-31 -6.16232e-15 -1.59028e-15 1.77636e-15 -7.15 -1 -0.0241969 0.609439 -0 0 -3 -1.42109e-14 -7.95139e-16 1.13307e-14 3.18055e-15 0 -2.35 1.42109e-14 -7.95139e-16 4.96962e-15 -0 -5 17 1.42109e-14 -5.33264 0.0710438 2.87195 -7.25 0 0 1.51553 -1.93127 -0.597347 -7.25 0 -1.42109e-14 -6.92098 -12.476 2.17334 -3.9968e-15 -30.1395 -2 2.4566 -21.6327 5.1049 5.32907e-15 -23.8605 2 -13.198 -2.96023 12.3179 0.5 -1.5 2.65 -2.50375 -30.5959 -6.62976 3.55271e-15 -3.8 3.7 2.98177e-15 30.9458 -0 0 -3 2.7 2.41907e-15 51.5755 -5.11769e-15 0 -1.9 1.6 -3.18055e-15 3.18055e-15 -3.18055e-15 0 -8.3 1.9 13.5882 1.5536 -0.254462 0 -4.5 0 -0.00597748 3.18055e-15 6.36111e-15 -7.10543e-15 -3.4 -7.10543e-15 -0.00553811 -6.36111e-15 -3.18055e-15 0.25 -2.2 0.4 -3.18055e-15 3.18055e-15 -3.18055e-15 0 -8.3 1 10.6444 0.945774 -0.140792 0 -4.65 1.42109e-14 9.27272 -1.59028e-15 6.36111e-15 0 -3.3 -1.42109e-14 8.23267 -3.18055e-15 -0 0.5 -2.15 -0.8 -3.18055e-15 3.18055e-15 -3.18055e-15 0 -7.75 -0.2 5.02274 -0.195419 -0.0239355 -1.77636e-15 -3.8 0 2.93623 6.36111e-15 -0 0 -3.4 0 2.80363 0 3.18055e-15 0.75 -1.75 -1.85 -3.18055e-15 3.18055e-15 -3.18055e-15 0 -7.15 -1 2.14399 -0.818954 0.00567702 0 -3 0 1.61284 -3.18055e-15 -3.18055e-15 -3.55271e-15 -2.35 0 1.57809 6.36111e-15 -6.36111e-15 12.5 0 7.10543e-15 2.70462 -27.9171 55.3337 7.10543e-15 -45.2616 -1 -0.169961 9.9469 3.1825 0 -41.2384 -2 -0.481061 -1.67832 -12.3975 7.10543e-15 -7.5 12.5 1.2424e-17 -1.83715e-08 -0 0 0 4 0.550058 0.171797 -57.8041 -12.5 0 0 -4.83622 -39.1927 13.7215 8.88178e-16 -45.2616 -1 -0.00496461 17.7268 0.104049 -8.88178e-16 -41.2384 -2 3.8207 -2.57426 2.78452 -8.88178e-16 -7.5 12.5 1.94126e-19 0 -0 -8.88178e-16 2.1684e-19 4 -3.04838 0.489228 -26.7758 
-24.9125 93.2965 14.0234 -21.2843 -11.3605 127.366 -1.77636e-15 8.59463 -7.10543e-15 1.10732 31.2165 8.14041 3.55271e-15 8.59463 0 2.60774 9.13295 -2.44668 -7.10543e-15 8.59463 2.84217e-14 1.25356 4.59022 -1.16948 0 8.59463 1.42109e-14 1.24934 4.57537 -1.1651 0 18.2636 0 -0.740401 -4.3046 1.27535 0 11.6027 0 -1.59201 -10.0852 2.91048 5 17 0 6.60769 1.17414 -1.87805 7.25 0 0 -3.61362 -4.62832 -3.78565 7.25 0 2.84217e-14 1.74336 -15.8363 -2.60778 3.55271e-15 -30.1395 -2 -18.1458 -20.7878 -5.75928 -3.55271e-15 -23.8605 2 21.9632 -2.49694 -17.367 -0.5 -1.5 2.65 5.62303 -25.1622 -0.334105 0 -3.8 3.7 -0.0367577 25.3087 -0 0 -3 2.7 1.1708e-14 40.9785 -4.2129e-15 1.77636e-15 -1.9 1.6 1.59028e-15 7.35503e-15 3.18055e-15 0 -8.3 1.9 -0.361301 -1.08419 -0.00417685 0 -4.5 -1.42109e-14 -0.000125572 -9.29273e-09 -7.95139e-15 0 -3.4 0 -0 -1.43125e-14 -0 -0.25 -2.2 0.4 1.59028e-15 7.35503e-15 3.18055e-15 0 -8.3 1 -0.281057 -0.661406 1.59038e-15 0 -4.65 1.42109e-14 -0.00015455 3.18055e-15 -1.59028e-15 0 -3.3 1.42109e-14 -1.03368e-14 1.19271e-15 -0 -0.5 -2.15 -0.8 1.59028e-15 7.35503e-15 3.18055e-15 0 -7.75 -0.2 -0.1032 0.184421 3.18057e-15 0 -3.8 -1.42109e-14 -5.79561e-05 -5.36719e-15 -3.18055e-15 0 -3.4 1.42109e-14 1.59028e-15 -2.5842e-15 -1.59028e-15 -0.75 -1.75 -1.85 1.59028e-15 7.35503e-15 3.18055e-15 -1.77636e-15 -7.15 -1 -0.0241969 0.605942 -0 -1.77636e-15 -3 0 1.59028e-15 -4.96962e-15 -0 0 -2.35 0 7.95139e-16 -7.95139e-15 -4.77083e-15 -5 17 0 -5.34331 0.0854366 2.88993 -7.25 0 -1.42109e-14 1.51015 -1.92935 -0.599131 -7.25 0 0 -6.92871 -12.4785 2.17181 -1.77636e-15 -30.1395 -2 2.4572 -21.611 5.10644 3.55271e-15 -23.8605 2 -13.1855 -2.97627 12.285 0.5 -1.5 2.65 -2.5087 -30.5976 -6.63637 0 -3.8 3.7 4.8099e-15 30.9592 -7.41791e-15 0 -3 2.7 1.60357e-14 51.5726 -2.04694e-14 1.77636e-15 -1.9 1.6 1.59028e-15 -3.18055e-15 -3.18055e-15 -3.55271e-15 -8.3 1.9 13.5973 1.52929 -0.254585 3.55271e-15 -4.5 -7.10543e-15 -0.00734551 9.54166e-15 -9.54166e-15 0 -3.4 7.10543e-15 -0.00639376 -3.18055e-15 -3.18055e-15 0.25 -2.2 0.4 1.59028e-15 -3.18055e-15 -3.18055e-15 0 -8.3 1 10.6527 0.928083 -0.141336 0 -4.65 0 9.28548 -7.95139e-15 3.18055e-15 -3.55271e-15 -3.3 0 8.24275 6.36111e-15 -6.36111e-15 0.5 -2.15 -0.8 1.59028e-15 -3.18055e-15 -3.18055e-15 0 -7.75 -0.2 5.0297 -0.199995 -0.0239293 1.77636e-15 -3.8 0 2.93455 -3.18055e-15 6.36111e-15 3.55271e-15 -3.4 0 2.80475 0 6.36111e-15 0.75 -1.75 -1.85 1.59028e-15 -3.18055e-15 -3.18055e-15 3.55271e-15 -7.15 -1 2.15016 -0.817984 0.00567702 3.55271e-15 -3 0 1.61389 0 3.18055e-15 1.77636e-15 -2.35 -1.42109e-14 1.5791 -3.18055e-15 6.36111e-15 12.5 0 0 2.69933 -27.9021 55.363 0 -45.2616 -1 -0.171688 9.95501 3.18801 0 -41.2384 -2 -0.481752 -1.67669 -12.4163 7.10543e-15 -7.5 12.5 -3.72721e-17 -1.84706e-08 -0 0 -1.11022e-16 4 0.550674 0.179665 -57.8042 -12.5 0 -7.10543e-15 -4.84711 -39.1859 13.6939 1.77636e-15 -45.2616 -1 -0.00436316 17.7263 0.102443 2.66454e-15 -41.2384 -2 3.82337 -2.57497 2.8232 0 -7.5 12.5 -1.94126e-19 -3.88251e-19 -0 0 0 4 -3.0624 0.481759 -26.7758 
-24.9125 93.2966 14.0129 -21.2814 -11.3504 127.349 3.55271e-15 8.59463 -7.10543e-15 1.14786 31.214 8.12099 3.55271e-15 8.59463 0 2.60958 9.13255 -2.44846 0 8.59463 -1.42109e-14 1.25453 4.59011 -1.17054 3.55271e-15 8.59463 -1.42109e-14 1.25038 4.57527 -1.16608 -3.55271e-15 18.2636 0 -0.742629 -4.30111 1.28156 3.55271e-15 11.6027 0 -1.60014 -10.0763 2.92462 5 17 -1.42109e-14 6.60904 1.19458 -1.88519 7.25 -7.10543e-15 0 -3.60575 -4.6327 -3.78469 7.25 0 0 1.72453 -15.834 -2.60705 0 -30.1395 -2 -18.1431 -20.765 -5.74494 -1.77636e-15 -23.8605 2 21.9499 -2.51313 -17.3354 -0.5 -1.5 2.65 5.62324 -25.1568 -0.348567 0 -3.8 3.7 -0.0367577 25.3154 1.75922e-15 1.77636e-15 -3 2.7 2.18663e-15 40.9699 -0 0 -1.9 1.6 2.38542e-15 2.5842e-15 -0 0 -8.3 1.9 -0.361301 -1.08608 -0.00417686 0 -4.5 0 -0.000125572 -9.29273e-09 -1.11319e-14 -1.77636e-15 -3.4 0 -7.95139e-16 0 1.59028e-15 -0.25 -2.2 0.4 2.38542e-15 2.5842e-15 -0 0 -8.3 1 -0.281057 -0.663756 -1.59038e-15 1.77636e-15 -4.65 -1.42109e-14 -0.00015455 -9.34288e-15 1.59028e-15 0 -3.3 0 -1.19271e-14 6.36111e-15 1.59028e-15 -0.5 -2.15 -0.8 2.38542e-15 2.5842e-15 -0 0 -7.75 -0.2 -0.103209 0.182326 -0 0 -3.8 -1.42109e-14 -5.79561e-05 -1.19271e-15 -1.59028e-15 0 -3.4 0 -7.95139e-16 -7.95139e-15 3.18055e-15 -0.75 -1.75 -1.85 2.38542e-15 2.5842e-15 -0 0 -7.15 -1 -0.0241969 0.603188 -1.59037e-15 0 -3 0 1.59028e-15 -2.18663e-15 -3.18055e-15 -1.77636e-15 -2.35 -2.84217e-14 2.38542e-15 9.93923e-15 1.59028e-15 -5 17 0 -5.3512 0.0989489 2.9063 -7.25 7.10543e-15 2.84217e-14 1.50444 -1.927 -0.601346 -7.25 0 -1.42109e-14 -6.93844 -12.4831 2.1648 4.44089e-16 -30.1395 -2 2.46071 -21.5908 5.11069 3.55271e-15 -23.8605 2 -13.1741 -2.98428 12.2682 0.5 -1.5 2.65 -2.5091 -30.5941 -6.64017 0 -3.8 3.7 -1.31233e-15 30.9684 3.70931e-15 -1.77636e-15 -3 2.7 1.20238e-14 51.5658 -1.53498e-14 1.77636e-15 -1.9 1.6 1.59028e-15 6.36111e-15 -0 -1.77636e-15 -8.3 1.9 13.6084 1.50509 -0.254721 -3.55271e-15 -4.5 0 -0.00863891 0 -9.54166e-15 0 -3.4 0 -0.00720874 3.18055e-15 3.18055e-15 0.25 -2.2 0.4 1.59028e-15 6.36111e-15 -0 0 -8.3 1 10.6629 0.909955 -0.141893 -7.10543e-15 -4.65 0 9.30073 -4.77083e-15 -0 0 -3.3 0 8.25482 -4.77083e-15 1.59028e-14 0.5 -2.15 -0.8 1.59028e-15 6.36111e-15 -0 1.77636e-15 -7.75 -0.2 5.03887 -0.206287 -0.023923 1.77636e-15 -3.8 0 2.93014 -6.36111e-15 -0 7.10543e-15 -3.4 0 2.80628 -3.18055e-15 3.18055e-15 0.75 -1.75 -1.85 1.59028e-15 6.36111e-15 -0 -3.55271e-15 -7.15 -1 2.15856 -0.816554 0.00567702 -1.77636e-15 -3 0 1.61506 0 3.18055e-15 1.77636e-15 -2.35 -1.42109e-14 1.58003 0 -0 12.5 -1.42109e-14 -1.42109e-14 2.69556 -27.8872 55.391 0 -45.2616 -1 -0.172458 9.95958 3.18936 0 -41.2384 -2 -0.482522 -1.67619 -12.432 -7.10543e-15 -7.5 12.5 6.21202e-18 -1.85694e-08 -0 0 0 4 0.549809 0.185467 -57.8042 -12.5 -1.42109e-14 0 -4.8553 -39.18 13.6705 8.88178e-16 -45.2616 -1 -0.00382261 17.7258 0.100862 -1.77636e-15 -41.2384 -2 3.82585 -2.5751 2.86024 0 -7.5 12.5 3.88251e-19 -3.88251e-19 9.54166e-15 8.88178e-16 2.71051e-20 4 -3.07401 0.474384 -26.7758 
